<svg xmlns="http://www.w3.org/2000/svg" viewBox="0 0 600 540" width="600" height="540">
<rect width="600" height="540" rx="20" fill="#061638"/>
<text x="160" y="65" fill="#f7fbff" text-anchor="middle" font-family="Hiragino Sans, Yu Gothic, system-ui, sans-serif" font-size="28" font-weight="700">玄関ドア</text><path d="M55 102H300V242M55 102V470H300" fill="none" stroke="#f7fbff" stroke-width="5"/>
<path d="M300 102V242L440 242" fill="none" stroke="#ffe300" stroke-width="5"/>
<path d="M300 102A140 140 0 0 1 440 242" fill="none" stroke="#ffe300" stroke-width="3" stroke-dasharray="9 7"/>
<rect x="172" y="325" width="74" height="60" fill="#09245a" stroke="#f7fbff" stroke-width="3"/>
<path d="M172 325L209 302 246 325 M209 325V385" fill="none" stroke="#f7fbff" stroke-width="3"/>
<path d="M369 463V319H534" fill="none" stroke="#ffe300" stroke-width="6"/>
<path d="M517 305L536 319 517 333" fill="none" stroke="#ffe300" stroke-width="5"/>
<path d="M495 375H556 M505 395H556 M515 415H556 M525 435H556 M535 455H556" stroke="#f7fbff" stroke-width="4"/>
<text x="433" y="80" fill="#f7fbff" text-anchor="middle" font-family="Hiragino Sans, Yu Gothic, system-ui, sans-serif" font-size="28" font-weight="700">開閉範囲</text><text x="199" y="428" fill="#f7fbff" text-anchor="middle" font-family="Hiragino Sans, Yu Gothic, system-ui, sans-serif" font-size="28" font-weight="700">荷物</text><text x="408" y="511" fill="#f7fbff" text-anchor="middle" font-family="Hiragino Sans, Yu Gothic, system-ui, sans-serif" font-size="28" font-weight="700">階段への通路</text>
</svg>
